<svg id="Layer_3" data-name="Layer 3" xmlns="http://www.w3.org/2000/svg" viewBox="0 0 1619.93 533.52"><defs><style>.cls-1{fill:#fcfcfc;}</style></defs><path class="cls-1" d="M451.45,430.54a303.26,303.26,0,0,1,58.61,5.81,343.08,343.08,0,0,1,36.19,9.33c30.35,9.52,57.66,24.72,82.4,44.81a254.63,254.63,0,0,1,74.15,97.93c8.8,20.3,15.52,41.39,18.34,63.29,2.38,18.52,4.53,68.07-1.85,93.74a348.8,348.8,0,0,1-8.52,35.23C705,800,696,817.84,685.63,835.05A240.6,240.6,0,0,1,648,883a269,269,0,0,1-52.6,40.14,261.6,261.6,0,0,1-59.94,25.63c-10,2.84-20,5.62-30.07,7.68-8.73,1.78-17.67,2.54-26.53,3.67-53.52,6.8-107.29,2.33-160.94,3.52-1.81,0-.18,0-9.08,0,3.76-4.25,4.17-4.69,6.35-7.2q17.26-17.55,34.81-34.83c16.72-16.55,33.44-33.1,50.38-49.41a13.27,13.27,0,0,1,8-3.07c8.36-.4,16.77.27,25.12-.25,14.13-.87,28.23-2.34,42.35-3.54,16.64-1.41,32.24-6.68,47.31-13.48a166,166,0,0,0,50.09-34.42c16.48-16.62,30.45-35.56,39-57.63,10.64-23.8,11.47-58.47,9.71-83.38-1.86-37.79-19.41-69.87-32.21-86.16-17.28-25.86-63.23-57.84-118-62.47-31.12-2.63-105.55-2.82-183.15-2.1-6.86-.12-6.9,0-6.91,6.7-.07,56.91,0,206.77-.34,224.79a13.67,13.67,0,0,1-3.49,8.69c-20.44,20.19-17.05,16.76-37.68,36.76-11.69,11.33-57.16,55.42-66,63.2,0-10.55.08-16.79.08-21.13q0-139.9-.05-279.81c-.06-41.24.25-75.59,0-116.82-.07-10.72,3.64-17.61,14.22-17.61H322.92Z" transform="translate(-174.23 -430.5)"/><path class="cls-1" d="M419.61,682.38c-56.75.37-34,.18-85.72.89,1.21-2.12,39.56-44,56.09-61.67,4-4.28,7.21-7,14-7.65H533.32c6.76-.14,8.15,1.28,8.15,7.94,0,44.41.1,56.79,0,101.21,0,5,.75,41,0,46-.31,2.18-2.62,5.84-4.18,7.35-18.06,17.45-62.11,57.61-63.89,58.33-.57-1.69.69-67-.23-80.54-2.23,2.39-3.88,4.36-5.73,6.13-19.3,18.42-170.32,163.73-197.37,189.81a136.1,136.1,0,0,1-11.52,10.52,12.92,12.92,0,0,1-7.33,2.3c-21.18.18-42.36.1-63.54.1-1.58,0-3.16,0-4.74,0-7.62.31-8.63-.59-8.66-8.35,0-9.17-.29-18.36.27-27.49a16.26,16.26,0,0,1,4-9.61C224.49,870.19,411,690.18,419.61,682.38Z" transform="translate(-174.23 -430.5)"/><path class="cls-1" d="M786.54,587.35a78.68,78.68,0,0,1,.56-9.58c1.12-9.22,4.95-12.83,14.23-13.15,6.11-.2,49.32-.58,64.74.18,28.66,1.4,55.22,10.39,77.66,28.11a117.76,117.76,0,0,1,37.77,52.5c9.15,24.74,11.12,49.53,3.9,74.54-11.54,39.91-36.62,68-75.79,83.31-16.09,6.3-32.73,8.06-49.67,8.42-19.59,0-29.37,0-56.1,0-11.33-.57-17.75-5.35-17.75-16.19,0-35.75.34-70,.34-104.94C786.46,690.55,786.5,621.75,786.54,587.35Zm52.31,163.89c0,6.17,1.26,7.25,7.1,7.28,9,0,18.1.2,27.13-.26,16.68-.84,31.85-6.88,43.17-18.78,17.65-18.56,25.31-41,18.88-66.68-4.06-16.17-12-29.89-25.64-40.5C890,617.17,867.65,616,844.65,616.57c-4.19.11-5.93,2.59-5.9,7C838.91,644.54,838.71,729.68,838.85,751.24Z" transform="translate(-174.23 -430.5)"/><path class="cls-1" d="M1216.18,589c0-4.66-.2-9.32-.4-14-.32-7.5,2.1-10.31,9.36-10.37q17.5-.14,35,0c6.55,0,8,1.69,8,8.48q-.09,39.82-.24,79.63c0,4.15,1.28,10.24,3.94,13.62,6.92,8.77,8.6,6.71,13.93.17,7.14-8.74,25.69-33.4,30.67-40.22,4.56-6.24,6.7-8.2,18.53-8.44,9.54-.19,33.54.21,35.84.53,4.13.58,5.47,3.21,3.4,6.86a57.7,57.7,0,0,1-5.1,7.08c-15.68,19.92-30,40.81-44.88,61.33-5.14,7.1-4.53,7.07,0,14.54,11.83,19.43,26.12,37.16,38.33,56.35,7.63,12,15.88,23.7,23.89,35.51,4.37,6.44,2.53,10.73-5.1,10.84-14.59.21-29.18-.2-43.77-.36-3.56,0-5.77-1.93-7.7-4.87-9.54-14.62-19.76-28.8-28.86-43.74-5.45-8.92-11.71-17.37-17.88-25.84-2.12-2.91-4.51-7.09-9-5.16-4.24,1.81-6.33,5.68-6.3,10.61.12,19,.09,37.93.16,56.89,0,11.2-.85,12.15-11.68,12.13-9.71.4-17.28.4-28.86.2-8.58.7-12.11-2.49-11.75-11.74C1215.69,715,1216.21,621.66,1216.18,589Z" transform="translate(-174.23 -430.5)"/><path class="cls-1" d="M1794,747q0,26.25,0,52.51c0,9-1.74,10.94-10.58,11.06-9.92.13-19.84.07-29.77.08-9.42,0-11.28-1.85-11.27-11.19q0-49,.07-98c0-9-2.07-17.32-7.23-24.76-12.21-17.6-36.39-16.47-47.08,2.16-4.2,7.32-5.57,15.32-5.58,23.56q-.08,48.14.08,96.27c0,10-1.73,12-11.39,12-10.21.05-20.42.19-30.63.15-7.42,0-9.91-2.59-9.91-10,0-33-.35-65.93.2-98.88.31-18.53,4.19-36.55,14.23-52.53,9.16-14.56,22.61-24,38.46-30.31,32.58-13,60.36-3.8,85.36,18.34,16.35,14.49,22.16,33.83,24.24,54.51C1795.07,710.21,1793.54,728.64,1794,747Z" transform="translate(-174.23 -430.5)"/><path class="cls-1" d="M1401.58,706.62c0-30.64.2-61.28-.06-91.91A50.14,50.14,0,0,1,1432,567.82a43.85,43.85,0,0,1,17.1-3.14q34.15-.12,68.32,0c9.4,0,11,1.93,10.87,11.37q-.19,16.63.06,33.26c.14,9.34-.47,10.14-9.56,10.13l-56.93-.1c-7.76,0-7.91.21-7.88,7.72,0,8.75-.09,17.5,0,26.25,0,6,1.06,7.17,7.18,7.16q28.88-.06,57.74-.43c7.68-.09,9.4,1.3,9.47,8.78.11,11.67.1,23.34.17,35,0,7.12-2.14,9.49-9.23,9.5-18.39,0-36.78,0-55.17-.07-1.75,0-3.51-.1-5.25-.06-3.52.08-5.39,1.82-5.33,5.44.06,2.92.1,5.83.12,8.75q.24,36.33.45,72.65c0,8.69-2.06,10.61-10.94,10.6-10.8,0-21.61.11-32.41,0-7.36-.08-9.21-2.14-9.21-9.48V706.62Z" transform="translate(-174.23 -430.5)"/><path class="cls-1" d="M1556.88,648.75c0-8,1.56-9.56,9.68-9.56,10.79,0,21.58-.05,32.37-.05,8.32,0,9.81,1.43,9.81,9.51q0,75.61-.08,151.24c0,7.23-2.58,10.39-9.67,10.62-10.78.35-21.58.32-32.36.09-6.46-.13-9.82-4.05-9.77-10.79C1557,780.31,1556.91,673.78,1556.88,648.75Z" transform="translate(-174.23 -430.5)"/><path class="cls-1" d="M1615.67,565.31c5.93,0,7,1.25,5.09,6.75-8.22,23.54-24,39.33-48.31,46a29.74,29.74,0,0,1-7.74,1c-5,0-7.89-2.29-8-7.24-.28-13.36-.22-26.74,0-40.1.1-4.84,2-6.19,7.47-6.27C1572.93,565.31,1607.24,565.25,1615.67,565.31Z" transform="translate(-174.23 -430.5)"/><path class="cls-1" d="M1196.75,714.37q0,40.92-26.82,69.89-27.4,30-67.93,30-40.73,0-68.13-29.76-26.82-28.77-26.82-69.69t26.82-69.69q27.62-29.37,68.13-29.36,40.32,0,67.73,29.36Q1196.74,673.66,1196.75,714.37Zm-41.31.39q0-23.88-14.68-40.72-15.27-17.81-38.76-17.81t-39,17.62q-14.68,17-14.68,40.91,0,23.49,14.88,40.72,15.66,18.21,38.76,18.21,23.3,0,38.76-18.21Q1155.45,738.26,1155.44,714.76Z" transform="translate(-174.23 -430.5)"/><path class="cls-1" d="M1186,715.36q0,36.17-23.71,61.79-24.22,26.48-60,26.47-36,0-60.23-26.3-23.71-25.44-23.71-61.62t23.71-61.61q24.4-26,60.23-26,35.64,0,59.88,26Q1186,679.37,1186,715.36Zm-36.51.34q0-21.11-13-36Q1123.05,664,1102.28,664t-34.44,15.57q-13,15.06-13,36.17,0,20.77,13.15,36,13.85,16.09,34.27,16.1,20.6,0,34.26-16.1Q1149.53,736.47,1149.53,715.7Z" transform="translate(-174.23 -430.5)"/></svg>