<svg xmlns="http://www.w3.org/2000/svg" xmlns:xlink="http://www.w3.org/1999/xlink" viewBox="0 0 1619.93 533.52" width="1620" height="534"><defs><style>.cls-1{fill:#e67327;}.cls-2{fill:#fe8d23;}.cls-3{fill:#f0ca45;}.cls-4{fill:#f2ad24;}.cls-5{fill:url(#linear-gradient);}</style><linearGradient id="linear-gradient" x1="200.33" y1="1088.45" x2="567.91" y2="1088.45" gradientUnits="userSpaceOnUse"><stop offset="0" stop-color="#e67527"/><stop offset="1" stop-color="#f1aa25"/></linearGradient></defs><g id="Layer_1" data-name="Layer 1"><path d="M812.63,889.42a80.73,80.73,0,0,1,.55-9.58c1.13-9.22,5-12.83,14.23-13.15,6.12-.2,49.32-.58,64.75.18,28.65,1.4,55.22,10.39,77.66,28.11a117.74,117.74,0,0,1,37.76,52.5c9.16,24.74,11.13,49.53,3.9,74.54-11.53,39.91-36.61,68-75.78,83.31-16.1,6.3-32.73,8.06-49.67,8.42-19.6,0-29.37,0-56.11,0-11.32-.57-17.75-5.35-17.74-16.19,0-35.75.33-70,.33-104.94C812.54,992.62,812.59,923.82,812.63,889.42Zm52.31,163.9c0,6.16,1.25,7.24,7.09,7.27,9.05,0,18.11.2,27.13-.26,16.69-.84,31.85-6.88,43.17-18.78,17.65-18.56,25.31-41,18.88-66.68-4.05-16.17-12-29.89-25.63-40.5-19.48-15.13-41.84-16.33-64.85-15.73-4.18.12-5.93,2.59-5.89,7C865,946.61,864.8,1031.75,864.94,1053.32Z" transform="translate(-200.32 -730.4)"/><path d="M1242.27,891.05c0-4.66-.2-9.32-.4-14-.32-7.5,2.1-10.31,9.36-10.37q17.51-.13,35,0c6.55,0,8,1.69,8,8.48q-.09,39.83-.23,79.63c0,4.15,1.27,10.24,3.94,13.62,6.92,8.77,8.6,6.71,13.93.17,7.14-8.74,25.69-33.4,30.67-40.22,4.55-6.24,6.7-8.2,18.53-8.44,9.54-.18,33.54.21,35.83.53,4.13.58,5.47,3.21,3.41,6.86a57.78,57.78,0,0,1-5.11,7.08c-15.67,19.92-30,40.81-44.87,61.33-5.14,7.1-4.54,7.07,0,14.54,11.83,19.43,26.13,37.16,38.33,56.35,7.64,12,15.89,23.7,23.9,35.51,4.36,6.44,2.53,10.73-5.11,10.84-14.58.21-29.17-.2-43.76-.36-3.57,0-5.78-1.93-7.7-4.87-9.55-14.62-19.76-28.8-28.87-43.74-5.44-8.92-11.7-17.37-17.87-25.84-2.12-2.91-4.51-7.09-9-5.16-4.24,1.81-6.34,5.68-6.31,10.61.13,19,.09,37.93.16,56.89,0,11.2-.85,12.15-11.67,12.13-9.71.4-17.29.4-28.87.2-8.58.7-12.1-2.49-11.75-11.74C1241.78,1017,1242.3,923.73,1242.27,891.05Z" transform="translate(-200.32 -730.4)"/><path d="M1820.12,1049.08q0,26.25,0,52.51c0,9-1.74,10.94-10.58,11.06-9.92.13-19.85.07-29.77.08-9.42,0-11.28-1.85-11.28-11.19q0-49,.07-98c0-9-2.06-17.32-7.22-24.76-12.22-17.6-36.4-16.47-47.08,2.16-4.2,7.32-5.57,15.32-5.59,23.56q-.08,48.13.09,96.27c0,10-1.73,12-11.4,12-10.21,0-20.41.19-30.62.16-7.42,0-9.91-2.6-9.91-10.05,0-33-.36-65.93.19-98.88.31-18.53,4.19-36.55,14.24-52.53,9.15-14.56,22.61-24,38.45-30.31,32.59-13,60.37-3.8,85.37,18.34,16.35,14.49,22.16,33.83,24.24,54.51C1821.16,1012.28,1819.63,1030.71,1820.12,1049.08Z" transform="translate(-200.32 -730.4)"/><path d="M1427.67,1008.69c0-30.64.2-61.28-.07-91.91a50.15,50.15,0,0,1,30.53-46.89,43.85,43.85,0,0,1,17.1-3.14q34.15-.12,68.31,0c9.4,0,11,1.93,10.87,11.37q-.18,16.64.06,33.26c.14,9.34-.47,10.14-9.56,10.13l-56.92-.1c-7.77,0-7.92.21-7.88,7.72,0,8.75-.1,17.5-.06,26.25,0,6,1.06,7.17,7.18,7.16q28.88-.06,57.75-.43c7.67-.09,9.4,1.3,9.47,8.78.1,11.67.1,23.34.17,35,0,7.12-2.14,9.49-9.23,9.5-18.39,0-36.79,0-55.18-.07-1.75,0-3.5-.1-5.25-.06-3.52.08-5.39,1.82-5.32,5.44,0,2.92.1,5.83.12,8.75q.24,36.33.45,72.65c0,8.69-2.06,10.61-11,10.6-10.8,0-21.6.11-32.4,0-7.37-.08-9.22-2.14-9.22-9.48q0-47.27,0-94.53Z" transform="translate(-200.32 -730.4)"/><path d="M1583,950.82c0-8,1.55-9.56,9.68-9.56,10.79,0,21.58,0,32.37,0,8.32,0,9.81,1.43,9.81,9.51q0,75.62-.08,151.24c0,7.23-2.58,10.39-9.67,10.62-10.78.35-21.58.32-32.37.09-6.46-.13-9.81-4.05-9.77-10.79C1583.07,1082.38,1583,975.85,1583,950.82Z" transform="translate(-200.32 -730.4)"/><path class="cls-1" d="M1641.76,867.38c5.93,0,7,1.25,5.09,6.75-8.22,23.54-24,39.33-48.31,46a29.76,29.76,0,0,1-7.75,1c-5,0-7.89-2.29-8-7.24-.29-13.36-.22-26.74,0-40.1.09-4.84,1.94-6.19,7.46-6.27C1599,867.38,1633.33,867.32,1641.76,867.38Z" transform="translate(-200.32 -730.4)"/><path d="M1222.83,1016.44q0,40.92-26.81,69.89-27.42,30-67.93,30-40.72,0-68.13-29.76-26.82-28.77-26.82-69.69T1060,947.14q27.6-29.37,68.13-29.36,40.32,0,67.73,29.36Q1222.84,975.73,1222.83,1016.44Zm-41.3.39q0-23.88-14.68-40.72-15.27-17.8-38.76-17.81t-39,17.62q-14.69,17-14.68,40.91,0,23.49,14.87,40.72,15.66,18.21,38.77,18.21,23.29,0,38.76-18.21Q1181.52,1040.33,1181.53,1016.83Z" transform="translate(-200.32 -730.4)"/><path d="M1212.13,1017.43q0,36.17-23.71,61.78-24.24,26.49-60.06,26.49-36,0-60.23-26.31-23.7-25.44-23.71-61.62t23.71-61.61q24.4-26,60.23-26,35.66,0,59.89,26Q1212.13,981.44,1212.13,1017.43Zm-36.52.34q0-21.1-13-36Q1149.13,966,1128.36,966a43.9,43.9,0,0,0-34.44,15.57q-13,15.06-13,36.17,0,20.77,13.16,36,13.85,16.1,34.26,16.1,20.6,0,34.27-16.1Q1175.62,1038.54,1175.61,1017.77Z" transform="translate(-200.32 -730.4)"/></g><g id="Layer_2" data-name="Layer 2"><path class="cls-2" d="M747.22,951.61c-2.81-21.9-9.53-43-18.33-63.29a254.63,254.63,0,0,0-74.16-97.93q-8.82-7.17-18.09-13.48c-24.08,30.33-59.51,51.54-98.18,59.41,36.15,12.27,64.64,34.74,77.43,53.88,12.8,16.29,30.35,48.38,32.21,86.16.19,2.72.35,5.56.47,8.48,34.48-2.86,69.2-10.38,99.37-26.62C747.71,955.74,747.47,953.51,747.22,951.61Z" transform="translate(-200.32 -730.4)"/><path class="cls-3" d="M587.15,1128.45a169.68,169.68,0,0,1-37.89,23.34c-15.08,6.8-30.67,12.07-47.32,13.48-14.11,1.21-28.21,2.67-42.34,3.54-8.35.52-16.77-.14-25.13.25a13.27,13.27,0,0,0-8,3.07c-16.95,16.31-33.66,32.86-50.38,49.41q-17.5,17.31-34.81,34.84c-2.19,2.5-2.59,2.94-6.36,7.2,8.91,0,7.28,0,9.09,0,53.65-1.18,107.42,3.28,160.94-3.52,8.86-1.12,17.79-1.89,26.52-3.66,10.13-2.07,20.13-4.85,30.08-7.69a261.53,261.53,0,0,0,59.93-25.63,269.1,269.1,0,0,0,52.61-40.14,226.4,226.4,0,0,0,17.63-19.42A188.2,188.2,0,0,1,652,1157C628.52,1151.33,608.32,1138.46,587.15,1128.45Z" transform="translate(-200.32 -730.4)"/><path class="cls-4" d="M736.86,1080.58a348.8,348.8,0,0,0,8.52-35.23c5.72-23,4.57-65.33,2.56-87.13-30.17,16.24-64.89,23.76-99.37,26.62,1,23.87-.71,53.69-10.18,74.9-8.59,22.07-22.56,41-39,57.63a159.19,159.19,0,0,1-12.2,11.08c21.17,10,41.37,22.88,64.85,28.55a188.2,188.2,0,0,0,39.71,6.5,254.71,254.71,0,0,0,20-28.54C722.12,1117.74,731.08,1099.85,736.86,1080.58Z" transform="translate(-200.32 -730.4)"/><path class="cls-1" d="M636.64,776.91a242.2,242.2,0,0,0-64.31-31.33,344.72,344.72,0,0,0-36.18-9.33,303.28,303.28,0,0,0-58.62-5.81L349,730.4H214.53c-10.58,0-14.28,6.89-14.21,17.61.28,41.23,0,75.58,0,116.82q.21,139.9,0,279.81c0,4.34-.07,10.58-.07,21.13,8.81-7.78,54.29-51.87,66-63.2,20.64-20,17.24-16.57,37.68-36.76a13.66,13.66,0,0,0,3.5-8.69c.32-18,.27-167.88.34-224.79,0-6.69.05-6.82,6.91-6.69,77.6-.73,152-.54,183.14,2.09a171.26,171.26,0,0,1,40.6,8.59C577.13,828.45,612.56,807.24,636.64,776.91Z" transform="translate(-200.32 -730.4)"/><path class="cls-5" d="M445.69,982.28c-56.75.37-34,.18-85.71.89,1.21-2.12,39.56-44,56.08-61.67,4-4.28,7.22-7,14-7.65H559.41c6.76-.14,8.15,1.27,8.15,7.93,0,44.41.1,56.8,0,101.21,0,5,.75,41,0,46-.31,2.18-2.62,5.84-4.17,7.35-18.06,17.45-62.11,57.61-63.89,58.34-.57-1.7.69-67-.23-80.55-2.23,2.4-3.88,4.36-5.73,6.13C474.28,1078.65,323.26,1224,296.21,1250a136.1,136.1,0,0,1-11.52,10.52,12.92,12.92,0,0,1-7.33,2.3c-21.18.18-42.36.1-63.54.1-1.58,0-3.17,0-4.74,0-7.62.31-8.63-.59-8.66-8.35,0-9.17-.3-18.36.27-27.49a16.2,16.2,0,0,1,4-9.61C250.58,1170.09,437.12,990.08,445.69,982.28Z" transform="translate(-200.32 -730.4)"/></g></svg>
