<?xml version="1.0" encoding="UTF-8" standalone="no"?>
<!-- Created with Inkscape (http://www.inkscape.org/) -->

<svg
   width="145.34116mm"
   height="141.16258mm"
   viewBox="0 0 145.34116 141.16258"
   version="1.1"
   id="svg1"
   xmlns="http://www.w3.org/2000/svg"
   xmlns:svg="http://www.w3.org/2000/svg">
  <defs
     id="defs1" />
  <g
     id="layer1"
     transform="translate(-31.770828,-38.906935)">
    <path
       class="cls-1"
       d="m 105.13185,38.925502 a 80.237541,80.237541 0 0 1 15.50723,1.537229 90.773249,90.773249 0 0 1 9.57527,2.468563 c 8.03011,2.518833 15.25588,6.540499 21.80167,11.855979 a 67.370853,67.370853 0 0 1 19.61885,25.910645 c 2.32834,5.371042 4.10634,10.951104 4.85246,16.745479 0.62971,4.900083 1.19856,18.010183 -0.48948,24.802033 a 92.286666,92.286666 0 0 1 -2.25425,9.32127 c -1.52664,5.11175 -3.90789,9.83192 -6.65162,14.3854 a 63.658749,63.658749 0 0 1 -9.95627,12.68677 71.172916,71.172916 0 0 1 -13.91709,10.62038 69.214999,69.214999 0 0 1 -15.85912,6.78127 c -2.64583,0.75141 -5.29167,1.48695 -7.95602,2.032 -2.30981,0.47095 -4.67519,0.67204 -7.0194,0.97102 -14.160499,1.79916 -28.387143,0.61648 -42.582039,0.93133 -0.478896,0 -0.04763,0 -2.402416,0 0.994833,-1.12448 1.103312,-1.2409 1.680104,-1.905 q 4.566708,-4.64344 9.210146,-9.21544 c 4.423833,-4.37885 8.847666,-8.75771 13.329708,-13.07306 a 3.5110208,3.5110208 0 0 1 2.116666,-0.81227 c 2.211922,-0.10583 4.437062,0.0714 6.646331,-0.0662 3.73856,-0.23018 7.46919,-0.61912 11.20511,-0.93662 4.40266,-0.37306 8.53016,-1.76742 12.51743,-3.56658 a 43.920833,43.920833 0 0 0 13.25298,-9.10696 c 4.36034,-4.39738 8.05657,-9.40859 10.31875,-15.24794 2.81517,-6.29708 3.03477,-15.47019 2.56911,-22.06096 -0.49213,-9.998597 -5.13557,-18.48643 -8.52223,-22.796493 -4.572,-6.842125 -16.72961,-15.3035 -31.22084,-16.52852 -8.23383,-0.695855 -27.926766,-0.746125 -48.458432,-0.555625 -1.815042,-0.03175 -1.825625,0 -1.828271,1.772708 -0.01852,15.057437 0,54.70789 -0.08996,59.47568 a 3.6168541,3.6168541 0 0 1 -0.923396,2.29923 c -5.408083,5.34194 -4.511145,4.43442 -9.969499,9.72608 -3.092979,2.99773 -15.123584,14.66321 -17.462501,16.72167 0,-2.79135 0.02117,-4.44235 0.02117,-5.59065 q 0,-37.0152 -0.01323,-74.033052 c -0.01588,-10.911416 0.06615,-19.999854 0,-30.908624 -0.01852,-2.836334 0.963083,-4.659313 3.762375,-4.659313 h 35.583812 z"
       id="path1"
       style="fill:#fe8d23;fill-opacity:1;stroke-width:0.264583" />
    <path
       class="cls-1"
       d="m 96.707521,105.55816 c -15.015105,0.0979 -8.995834,0.0476 -22.680084,0.23548 0.320146,-0.56091 10.466917,-11.64166 14.840479,-16.316847 1.058333,-1.132417 1.907646,-1.852083 3.704167,-2.024063 h 34.221207 c 1.78858,-0.03704 2.15635,0.338667 2.15635,2.100792 0,11.750138 0.0265,15.025688 0,26.778478 0,1.32291 0.19844,10.84791 0,12.17083 -0.082,0.57679 -0.6932,1.54517 -1.10595,1.94469 -4.77838,4.61698 -16.43327,15.24264 -16.90423,15.43314 -0.15082,-0.44714 0.18256,-17.72708 -0.0609,-21.30954 -0.59002,0.63236 -1.02659,1.15359 -1.51607,1.6219 -5.10645,4.87362 -45.063828,43.32023 -52.220807,50.22056 a 36.009791,36.009791 0 0 1 -3.048,2.78342 3.4184166,3.4184166 0 0 1 -1.939395,0.60854 c -5.603875,0.0476 -11.20775,0.0265 -16.811625,0.0265 -0.418042,0 -0.836084,0 -1.254126,0 -2.016125,0.082 -2.283354,-0.15611 -2.291291,-2.20928 0,-2.42622 -0.07673,-4.85775 0.07144,-7.27339 a 4.3021249,4.3021249 0 0 1 1.058334,-2.54265 c 12.155001,-12.55716 61.502441,-60.18481 63.780501,-62.24856 z"
       id="path2"
       style="fill:#fe8d23;fill-opacity:1;stroke-width:0.264583" />
  </g>
</svg>
