<svg width="550" height="534" viewBox="0 0 550 534" fill="none" xmlns="http://www.w3.org/2000/svg">
<path d="M546.97 221.21C544.16 199.31 537.44 178.21 528.64 157.92C512.282 119.713 486.822 86.0918 454.48 59.9898C448.6 55.2098 442.57 50.7164 436.39 46.5098C412.31 76.8398 376.88 98.0498 338.21 105.92C374.36 118.19 402.85 140.66 415.64 159.8C428.44 176.09 445.99 208.18 447.85 245.96C448.04 248.68 448.2 251.52 448.32 254.44C482.8 251.58 517.52 244.06 547.69 227.82C547.46 225.34 547.22 223.11 546.97 221.21Z" fill="#FE8D23"/>
<path d="M386.9 398.05C375.349 407.459 362.61 415.307 349.01 421.39C333.93 428.19 318.34 433.46 301.69 434.87C287.58 436.08 273.48 437.54 259.35 438.41C251 438.93 242.58 438.27 234.22 438.66C231.287 438.77 228.474 439.85 226.22 441.73C209.27 458.04 192.56 474.59 175.84 491.14C164.173 502.68 152.57 514.293 141.03 525.98C138.84 528.48 138.44 528.92 134.67 533.18C143.58 533.18 141.95 533.18 143.76 533.18C197.41 532 251.18 536.46 304.7 529.66C313.56 528.54 322.49 527.77 331.22 526C341.35 523.93 351.35 521.15 361.3 518.31C382.267 512.299 402.4 503.689 421.23 492.68C440.351 481.515 458.022 468.033 473.84 452.54C480.087 446.413 485.974 439.928 491.47 433.12C478.035 432.373 464.719 430.187 451.75 426.6C428.27 420.93 408.07 408.06 386.9 398.05Z" fill="#F0CA45"/>
<path d="M536.61 350.18C540.059 338.592 542.902 326.833 545.13 314.95C550.85 291.95 549.7 249.62 547.69 227.82C517.52 244.06 482.8 251.58 448.32 254.44C449.32 278.31 447.61 308.13 438.14 329.34C429.55 351.41 415.58 370.34 399.14 386.97C395.267 390.871 391.195 394.57 386.94 398.05C408.11 408.05 428.31 420.93 451.79 426.6C464.756 430.179 478.069 432.359 491.5 433.1C498.81 424.054 505.493 414.519 511.5 404.56C521.87 387.34 530.83 369.45 536.61 350.18Z" fill="#F2AD24"/>
<path d="M436.39 46.5099C416.622 32.941 394.949 22.3826 372.08 15.18C360.198 11.4182 348.12 8.30363 335.9 5.84998C316.595 2.01574 296.962 0.0698968 277.28 0.039978L148.75 0H14.28C3.7 0 7.32392e-06 6.88999 0.0700073 17.61C0.350007 58.84 0.0700073 93.19 0.0700073 134.43C0.210007 227.697 0.210007 320.967 0.0700073 414.24C0.0700073 418.58 0 424.82 0 435.37C8.81 427.59 54.29 383.5 66 372.17C86.64 352.17 83.24 355.6 103.68 335.41C105.835 333.017 107.074 329.939 107.18 326.72C107.5 308.72 107.45 158.84 107.52 101.93C107.52 95.24 107.57 95.11 114.43 95.24C192.03 94.51 266.43 94.7 297.57 97.33C311.401 98.537 325.035 101.422 338.17 105.92C376.88 98.05 412.31 76.84 436.39 46.5099Z" fill="#E67327"/>
<path d="M245.44 251.88C188.69 252.25 211.44 252.06 159.73 252.77C160.94 250.65 199.29 208.77 215.81 191.1C219.81 186.82 223.03 184.1 229.81 183.45H359.16C365.92 183.31 367.31 184.72 367.31 191.38C367.31 235.79 367.41 248.18 367.31 292.59C367.31 297.59 368.06 333.59 367.31 338.59C367 340.77 364.69 344.43 363.14 345.94C345.08 363.39 301.03 403.55 299.25 404.28C298.68 402.58 299.94 337.28 299.02 323.73C296.79 326.13 295.14 328.09 293.29 329.86C274.03 348.25 123.01 493.6 95.96 519.6C92.3243 523.324 88.478 526.837 84.44 530.12C82.2864 531.612 79.73 532.414 77.1099 532.42C55.9299 532.6 34.75 532.52 13.57 532.52C11.99 532.52 10.4 532.52 8.82996 532.52C1.20996 532.83 0.199958 531.93 0.169958 524.17C0.169958 515 -0.130038 505.81 0.439962 496.68C0.679826 493.124 2.08577 489.746 4.43996 487.07C50.33 439.69 236.87 259.68 245.44 251.88Z" fill="url(#paint0_linear_2196_3982)"/>
<defs>
<linearGradient id="paint0_linear_2196_3982" x1="0.0799599" y1="358.05" x2="367.66" y2="358.05" gradientUnits="userSpaceOnUse">
<stop stop-color="#E67527"/>
<stop offset="1" stop-color="#F1AA25"/>
</linearGradient>
</defs>
</svg>
